<svg width="20" height="20" viewBox="0 0 20 20" fill="none" xmlns="http://www.w3.org/2000/svg">
<path d="M8.05203 15.4348L2.89925 10.2959C2.73606 10.1327 2.73606 9.86881 2.89925 9.70562L8.05203 4.56673C8.21522 4.40354 8.47911 4.40354 8.64231 4.56673L9.32286 5.24729C9.48953 5.41395 9.48606 5.68131 9.31592 5.84104L5.94439 9.09451L16.8055 9.09451C17.0347 9.09451 17.2222 9.28201 17.2222 9.51118L17.2222 10.4834C17.2222 10.7126 17.0347 10.9001 16.8055 10.9001L5.94439 10.9001L9.31592 14.1535C9.48258 14.3167 9.48606 14.5841 9.32286 14.7473L8.64231 15.4278C8.47911 15.598 8.21522 15.598 8.05203 15.4348Z" fill="#0A467E"/>
</svg>
