<svg width="30" height="31" viewBox="0 0 30 31" fill="none" xmlns="http://www.w3.org/2000/svg">
<g clip-path="url(#clip0)">
<path d="M7 13V9.5C7 8.39543 7.89543 7.5 9 7.5H12C13.1046 7.5 14 8.39543 14 9.5V13" stroke="#0A467E" stroke-width="1.5" stroke-miterlimit="10" stroke-linecap="round" stroke-linejoin="round"/>
<path d="M1 29.5H29" stroke="#0A467E" stroke-width="1.5" stroke-miterlimit="10" stroke-linecap="round" stroke-linejoin="round"/>
<path d="M21 29.5V3.5C21 2.39543 20.1046 1.5 19 1.5H16C14.8954 1.5 14 2.39543 14 3.5V10.863" stroke="#0A467E" stroke-width="1.5" stroke-miterlimit="10" stroke-linecap="round" stroke-linejoin="round"/>
<path d="M28 29.5V14.5C28 13.3954 27.1046 12.5 26 12.5H23C21.8954 12.5 21 13.3954 21 14.5V29.5" stroke="#0A467E" stroke-width="1.5" stroke-miterlimit="10" stroke-linecap="round" stroke-linejoin="round"/>
<path d="M12.4251 25.5L11.6998 25.0883L16.2572 17.5L16.9933 17.9117L12.4251 25.5ZM13.5833 20.9715C13.3019 21.3053 12.9122 21.4722 12.4142 21.4722C11.9163 21.4722 11.523 21.3053 11.2343 20.9715C10.9528 20.6303 10.8121 20.1667 10.8121 19.5807C10.8121 18.9947 10.9528 18.5348 11.2343 18.201C11.523 17.8598 11.9163 17.6892 12.4142 17.6892C12.9122 17.6892 13.3019 17.8598 13.5833 18.201C13.872 18.5348 14.0164 18.9947 14.0164 19.5807C14.0164 20.1667 13.872 20.6303 13.5833 20.9715ZM11.7647 19.5807C11.7647 20.2557 11.9812 20.5932 12.4142 20.5932C12.8472 20.5932 13.0637 20.2557 13.0637 19.5807C13.0637 18.9057 12.8472 18.5681 12.4142 18.5681C11.9812 18.5681 11.7647 18.9057 11.7647 19.5807ZM17.567 24.8769C17.2855 25.2107 16.8958 25.3776 16.3979 25.3776C15.8999 25.3776 15.5066 25.2107 15.2179 24.8769C14.9365 24.5357 14.7958 24.0721 14.7958 23.4861C14.7958 22.9001 14.9365 22.4402 15.2179 22.1064C15.5066 21.7652 15.8999 21.5946 16.3979 21.5946C16.8958 21.5946 17.2855 21.7652 17.567 22.1064C17.8557 22.4402 18 22.9001 18 23.4861C18 24.0721 17.8557 24.5357 17.567 24.8769ZM15.7484 23.4861C15.7484 24.1611 15.9649 24.4986 16.3979 24.4986C16.8309 24.4986 17.0474 24.1611 17.0474 23.4861C17.0474 22.8111 16.8309 22.4736 16.3979 22.4736C15.9649 22.4736 15.7484 22.8111 15.7484 23.4861Z" fill="#EB174B"/>
<path d="M5.05476 25.417H0.188659V24.541L2.77134 21.5989C3.29178 21.0417 3.56934 20.5603 3.60404 20.1546L3.61705 19.8002C3.61705 19.4302 3.51296 19.1249 3.30479 18.8841C3.09661 18.639 2.82555 18.5164 2.4916 18.5164C2.0926 18.5164 1.76732 18.6724 1.51578 18.9844C1.26857 19.2965 1.14497 19.7177 1.14497 20.2482H0C0 19.7534 0.108425 19.2942 0.325274 18.8708C0.542124 18.4428 0.841376 18.1085 1.22303 17.8678C1.60469 17.6226 2.02754 17.5 2.4916 17.5C3.18552 17.5 3.73849 17.7073 4.1505 18.1219C4.56251 18.5364 4.76852 19.078 4.76852 19.7467C4.76852 20.5491 4.3912 21.3604 3.63657 22.1806L1.75648 24.4073H5.05476V25.417Z" fill="#EB174B"/>
<path d="M9.05563 25.417H7.91067V19.1717L5.89397 20.1011V18.9777L8.88649 17.627H9.05563V25.417Z" fill="#EB174B"/>
</g>
<defs>
<clipPath id="clip0">
<rect width="30" height="30" fill="white" transform="translate(0 0.5)"/>
</clipPath>
</defs>
</svg>
