<svg width="30" height="30" viewBox="0 0 30 30" fill="none" xmlns="http://www.w3.org/2000/svg">
<path d="M9.52615 16C9.4359 16 9.36205 15.97 9.30462 15.91C9.25538 15.85 9.23077 15.7771 9.23077 15.6914V14.2771H8.29538C8.21333 14.2771 8.14359 14.2471 8.08615 14.1871C8.02872 14.1271 8 14.0543 8 13.9686V13.57C8 13.4843 8.02872 13.4114 8.08615 13.3514C8.14359 13.2914 8.21333 13.2614 8.29538 13.2614H9.23077V12.5671H8.29538C8.21333 12.5671 8.14359 12.5414 8.08615 12.49C8.02872 12.43 8 12.3529 8 12.2586V11.5643C8 11.47 8.02872 11.3971 8.08615 11.3457C8.14359 11.2857 8.21333 11.2557 8.29538 11.2557H9.23077V7.32143C9.23077 7.22714 9.25538 7.15 9.30462 7.09C9.36205 7.03 9.4359 7 9.52615 7H12.8123C13.4605 7 14.0226 7.10714 14.4985 7.32143C14.9744 7.52714 15.3436 7.84429 15.6062 8.27286C15.8687 8.69286 16 9.22 16 9.85429C16 10.4714 15.8687 10.9814 15.6062 11.3843C15.3436 11.7786 14.9744 12.0743 14.4985 12.2714C14.0226 12.4686 13.4605 12.5671 12.8123 12.5671H10.9908V13.2614H12.9969C13.0872 13.2614 13.1569 13.2914 13.2062 13.3514C13.2636 13.4114 13.2923 13.4843 13.2923 13.57V13.9686C13.2923 14.0543 13.2636 14.1271 13.2062 14.1871C13.1569 14.2471 13.0872 14.2771 12.9969 14.2771H10.9908V15.6914C10.9908 15.7771 10.9621 15.85 10.9046 15.91C10.8472 15.97 10.7733 16 10.6831 16H9.52615ZM10.9662 11.2557H12.7508C13.2267 11.2557 13.5918 11.14 13.8462 10.9086C14.1087 10.6686 14.24 10.3171 14.24 9.85429C14.24 9.42571 14.121 9.08286 13.8831 8.82571C13.6451 8.56 13.2677 8.42714 12.7508 8.42714H10.9662V11.2557Z" fill="#EB174B"/>
<path d="M3.85742 28L13.3682 18.5056L18.9284 24.0562L28.0003 15" stroke="#0A467E" stroke-width="1.5" stroke-linecap="round" stroke-linejoin="round"/>
<path d="M24.2861 15H28.0004V18.7143" stroke="#0A467E" stroke-width="1.5" stroke-linecap="round" stroke-linejoin="round"/>
<path d="M23.7275 10C22.586 4.85081 17.9927 1 12.5 1C6.14873 1 1 6.14873 1 12.5C1 15.8674 2.44736 18.8968 4.75392 21" stroke="#EB174B" stroke-width="1.5" stroke-linecap="round" stroke-linejoin="round"/>
</svg>
