<svg width="78" height="78" viewBox="0 0 78 78" fill="none" xmlns="http://www.w3.org/2000/svg">
<rect y="14.7393" width="64.9551" height="64.9551" rx="18" transform="rotate(-13.1154 0 14.7393)" fill="url(#paint0_radial)"/>
<g filter="url(#filter0_b)">
<rect x="14.9902" y="13.9904" width="59.9586" height="59.9586" rx="15" fill="url(#paint1_radial)"/>
<rect x="15.4902" y="14.4904" width="58.9586" height="58.9586" rx="14.5" stroke="url(#paint2_radial)"/>
</g>
<path fill-rule="evenodd" clip-rule="evenodd" d="M30 39.8631C30 49.0126 41.3737 56.8726 44.9687 56.9985L44.9688 57C44.9817 57 44.9947 56.9998 45.0079 56.9995C45.0236 56.9998 45.0392 57 45.0546 57L45.0548 56.9978C48.1123 56.8487 60 48.9969 60 39.8623C60 35.5201 56.4183 32 52 32C48.9879 32 46.3646 33.636 44.9999 36.0532C43.6351 33.636 41.0119 32 38 32C33.5817 32 30 35.5204 30 39.8631ZM47.5922 38.7285C47.4707 38.3126 47.0986 38.0202 46.6664 38.001C46.2343 37.9818 45.8377 38.24 45.6799 38.6433L43.5837 44.0001H39.0114C38.4528 44.0001 38 44.4536 38 45.0131C38 45.5726 38.4528 46.0261 39.0114 46.0261H44.2736C44.6897 46.0261 45.0634 45.7708 45.2152 45.3827L46.4826 42.144L48.5653 49.2715C48.6801 49.6642 49.0194 49.9492 49.4255 49.9939C49.8316 50.0386 50.2247 49.8342 50.4218 49.4758L52.3193 46.0261H53.9886C54.5472 46.0261 55 45.5726 55 45.0131C55 44.4536 54.5472 44.0001 53.9886 44.0001H51.7218C51.3532 44.0001 51.0138 44.2009 50.836 44.5243L49.8236 46.3648L47.5922 38.7285Z" fill="url(#paint3_radial)"/>
<defs>
<filter id="filter0_b" x="-0.00976562" y="-1.00964" width="89.9586" height="89.9586" filterUnits="userSpaceOnUse" color-interpolation-filters="sRGB">
<feFlood flood-opacity="0" result="BackgroundImageFix"/>
<feGaussianBlur in="BackgroundImage" stdDeviation="7.5"/>
<feComposite in2="SourceAlpha" operator="in" result="effect1_backgroundBlur"/>
<feBlend mode="normal" in="SourceGraphic" in2="effect1_backgroundBlur" result="shape"/>
</filter>
<radialGradient id="paint0_radial" cx="0" cy="0" r="1" gradientUnits="userSpaceOnUse" gradientTransform="translate(20.9051 20.3388) rotate(59.2776) scale(75.994)">
<stop stop-color="#84DF8D"/>
<stop offset="1" stop-color="#35B32A"/>
</radialGradient>
<radialGradient id="paint1_radial" cx="0" cy="0" r="1" gradientUnits="userSpaceOnUse" gradientTransform="translate(44.8067 26.578) rotate(55.9422) scale(74.4521 109.509)">
<stop stop-color="white" stop-opacity="0.7"/>
<stop offset="1" stop-color="white" stop-opacity="0"/>
</radialGradient>
<radialGradient id="paint2_radial" cx="0" cy="0" r="1" gradientUnits="userSpaceOnUse" gradientTransform="translate(40.6716 21.7537) rotate(75.5061) scale(52.3198)">
<stop stop-color="#ECFFEE"/>
<stop offset="1" stop-color="#A9D8AF" stop-opacity="0.56"/>
</radialGradient>
<radialGradient id="paint3_radial" cx="0" cy="0" r="1" gradientUnits="userSpaceOnUse" gradientTransform="translate(45.0175 36.6071) rotate(59.161) scale(19.3772 27.7784)">
<stop stop-color="white"/>
<stop offset="1" stop-color="white" stop-opacity="0.5"/>
</radialGradient>
</defs>
</svg>
