<svg width="30" height="30" viewBox="0 0 30 30" fill="none" xmlns="http://www.w3.org/2000/svg">
<path d="M2.625 22.8125V4.0625C2.625 3.5 3.09375 2.9375 3.75 2.9375H25.7813C26.4375 2.9375 26.9063 3.5 26.9063 4.0625V22.8125" stroke="#0A467E" stroke-width="1.5" stroke-miterlimit="10" stroke-linecap="round" stroke-linejoin="round"/>
<path d="M27.9375 22.8125H20.4375C19.7812 22.8125 19.3125 23.2812 19.3125 23.9375C19.3125 24.2187 19.0313 24.5 18.75 24.5H11.4375C11.1562 24.5 10.875 24.2187 10.875 23.9375C10.875 23.2812 10.4062 22.8125 9.75 22.8125H2.0625C1.40625 22.8125 0.9375 23.375 0.9375 23.9375V26.0938C0.9375 26.75 1.5 27.3125 2.0625 27.3125H27.8438C28.5 27.3125 28.9687 26.75 28.9687 26.1875V24.0312C29.0625 23.375 28.5 22.8125 27.9375 22.8125Z" stroke="#0A467E" stroke-width="1.5" stroke-miterlimit="10" stroke-linecap="round" stroke-linejoin="round"/>
<path d="M14.625 14.1875L6.65625 10.9062L14.625 7.53125L22.6875 10.9062L14.625 14.1875Z" stroke="#EB174B" stroke-width="1.5" stroke-miterlimit="10" stroke-linecap="round" stroke-linejoin="round"/>
<path d="M10.125 12.4062V17.75C10.125 17.75 12.6563 17.6562 14.625 18.6875C16.5937 17.6562 19.125 17.75 19.125 17.75V12.4062" stroke="#EB174B" stroke-width="1.5" stroke-miterlimit="10" stroke-linecap="round" stroke-linejoin="round"/>
<path d="M22.6875 10.9062V15.5938" stroke="#EB174B" stroke-width="1.5" stroke-miterlimit="10" stroke-linecap="round" stroke-linejoin="round"/>
<path d="M22.6875 15.5938L22.0312 17.375H23.3437L22.6875 15.5938Z" stroke="#EB174B" stroke-width="1.5" stroke-miterlimit="10" stroke-linecap="round" stroke-linejoin="round"/>
</svg>
