<svg width="80" height="80" viewBox="0 0 80 80" fill="none" xmlns="http://www.w3.org/2000/svg">
<rect y="15.1171" width="66.6207" height="66.6207" rx="18" transform="rotate(-13.1154 0 15.1171)" fill="url(#paint0_radial)"/>
<g filter="url(#filter0_b)">
<rect x="15.373" y="15.3491" width="61.496" height="61.496" rx="15" fill="url(#paint1_radial)"/>
<rect x="15.873" y="15.8491" width="60.496" height="60.496" rx="14.5" stroke="url(#paint2_radial)"/>
</g>
<path d="M45.6859 32.0459C50.1484 32.0459 50.7151 32.0459 52.4859 32.1167C54.1151 32.1876 55.0359 32.4709 55.6026 32.6834C56.3818 32.9667 56.9484 33.3917 57.5151 33.9584C58.0818 34.5251 58.4359 35.0917 58.7901 35.9417C59.0026 36.5084 59.2859 37.4292 59.3568 39.1292C59.4276 40.9001 59.4276 41.4667 59.4276 46.0001C59.4276 50.5334 59.4276 51.1001 59.3568 52.8709C59.2859 54.5001 59.0026 55.4209 58.7901 56.0584C58.5068 56.8376 58.1526 57.4042 57.5151 58.0417C56.9484 58.6084 56.3818 59.0334 55.6026 59.3167C55.0359 59.5292 54.1151 59.8126 52.4859 59.8834C50.7151 59.9542 50.2193 59.9542 45.6859 59.9542C41.2234 59.9542 40.6568 59.9542 38.8859 59.8834C37.2568 59.8126 36.3359 59.5292 35.7693 59.3167C34.9901 59.0334 34.4234 58.6084 33.8568 58.0417C33.2901 57.4751 32.9359 56.9084 32.5818 56.0584C32.3693 55.4917 32.0859 54.5709 32.0151 52.8709C31.9443 51.1001 31.9443 50.5334 31.9443 46.0001C31.9443 41.4667 31.9443 40.9001 32.0151 39.1292C32.0859 37.5001 32.3693 36.5792 32.5818 35.9417C32.9359 35.1626 33.2901 34.5959 33.8568 34.0292C34.4234 33.4626 34.9901 33.0376 35.7693 32.7542C36.3359 32.5417 37.2568 32.2584 38.8859 32.1876C40.6568 32.0459 41.1526 32.0459 45.6859 32.0459ZM45.6859 29.0001C41.1526 29.0001 40.5859 29.0001 38.7443 29.0709C36.9734 29.1417 35.7693 29.4251 34.7068 29.8501C33.5734 30.3459 32.6526 30.9126 31.7318 31.8334C30.8109 32.8251 30.1734 33.7459 29.7484 34.8792C29.3234 35.9417 29.0401 37.2167 28.9693 38.9876C28.8984 40.8292 28.8984 41.3959 28.8984 46.0001C28.8984 50.6042 28.8984 51.1709 28.9693 53.0126C29.0401 54.7834 29.3234 56.0584 29.7484 57.1209C30.1734 58.2542 30.8109 59.1751 31.7318 60.1667C32.6526 61.0876 33.5734 61.7251 34.7068 62.1501C35.7693 62.5751 36.9734 62.8584 38.7443 62.9292C40.5151 63.0001 41.0818 63.0001 45.6859 63.0001C50.2193 63.0001 50.7859 63.0001 52.6276 62.9292C54.3984 62.8584 55.6026 62.5751 56.6651 62.1501C57.7984 61.7251 58.7193 61.1584 59.6401 60.1667C60.5609 59.2459 61.1276 58.2542 61.5526 57.1917C61.9776 56.1292 62.2609 54.8542 62.3318 53.0834C62.4026 51.2417 62.4026 50.6751 62.4026 46.0709C62.4026 41.4667 62.4026 40.9001 62.3318 39.0584C62.2609 37.2876 61.9776 36.0126 61.5526 34.9501C61.1276 33.8167 60.5609 32.8959 59.6401 31.9042C58.7193 30.9834 57.7984 30.3459 56.6651 29.9209C55.6026 29.4959 54.3984 29.2126 52.6276 29.1417C50.7859 29.0001 50.2193 29.0001 45.6859 29.0001Z" fill="url(#paint3_radial)"/>
<path d="M45.6866 37.2876C40.9408 37.2876 37.0449 41.1834 37.0449 46.0001C37.0449 50.8168 40.9408 54.7126 45.6866 54.7126C50.4324 54.7126 54.2574 50.8168 54.2574 46.0001C54.2574 41.1834 50.4324 37.2876 45.6866 37.2876ZM45.6866 51.6668C42.5699 51.6668 40.0908 49.1168 40.0908 46.0001C40.0908 42.8834 42.5699 40.3334 45.6866 40.3334C48.8033 40.3334 51.2824 42.8834 51.2824 46.0001C51.2824 49.1168 48.7324 51.6668 45.6866 51.6668Z" fill="url(#paint4_radial)"/>
<path d="M56.5936 36.9334C56.5936 38.0667 55.6728 38.9875 54.6103 38.9875C53.477 38.9875 52.627 38.0667 52.627 36.9334C52.627 35.8 53.5478 34.8792 54.6103 34.8792C55.7436 34.8792 56.5936 35.8 56.5936 36.9334Z" fill="url(#paint5_radial)"/>
<defs>
<filter id="filter0_b" x="0.373047" y="0.349121" width="91.496" height="91.496" filterUnits="userSpaceOnUse" color-interpolation-filters="sRGB">
<feFlood flood-opacity="0" result="BackgroundImageFix"/>
<feGaussianBlur in="BackgroundImage" stdDeviation="7.5"/>
<feComposite in2="SourceAlpha" operator="in" result="effect1_backgroundBlur"/>
<feBlend mode="normal" in="SourceGraphic" in2="effect1_backgroundBlur" result="shape"/>
</filter>
<radialGradient id="paint0_radial" cx="0" cy="0" r="1" gradientUnits="userSpaceOnUse" gradientTransform="translate(21.4411 20.8603) rotate(59.2776) scale(77.9426)">
<stop stop-color="#D0C0E9"/>
<stop offset="1" stop-color="#936FD3"/>
</radialGradient>
<radialGradient id="paint1_radial" cx="0" cy="0" r="1" gradientUnits="userSpaceOnUse" gradientTransform="translate(45.954 28.2595) rotate(55.9422) scale(76.3611 112.317)">
<stop stop-color="white" stop-opacity="0.7"/>
<stop offset="1" stop-color="white" stop-opacity="0"/>
</radialGradient>
<radialGradient id="paint2_radial" cx="0" cy="0" r="1" gradientUnits="userSpaceOnUse" gradientTransform="translate(58.6773 15.5362) rotate(111.915) scale(66.2858)">
<stop stop-color="#F4ECFF"/>
<stop offset="1" stop-color="#DCD1E9"/>
</radialGradient>
<radialGradient id="paint3_radial" cx="0" cy="0" r="1" gradientUnits="userSpaceOnUse" gradientTransform="translate(45.67 35.2657) rotate(63.8823) scale(25.2002 32.4422)">
<stop stop-color="white"/>
<stop offset="1" stop-color="white" stop-opacity="0.5"/>
</radialGradient>
<radialGradient id="paint4_radial" cx="0" cy="0" r="1" gradientUnits="userSpaceOnUse" gradientTransform="translate(45.6612 40.4987) rotate(63.8274) scale(12.9212 16.6591)">
<stop stop-color="white"/>
<stop offset="1" stop-color="white" stop-opacity="0.5"/>
</radialGradient>
<radialGradient id="paint5_radial" cx="0" cy="0" r="1" gradientUnits="userSpaceOnUse" gradientTransform="translate(54.6126 35.6363) rotate(64.3414) scale(3.0332 3.85591)">
<stop stop-color="white"/>
<stop offset="1" stop-color="white" stop-opacity="0.5"/>
</radialGradient>
</defs>
</svg>
