<svg width="80" height="80" viewBox="0 0 80 80" fill="none" xmlns="http://www.w3.org/2000/svg">
<rect y="15.1172" width="66.6207" height="66.6207" rx="18" transform="rotate(-13.1154 0 15.1172)" fill="url(#paint0_radial)"/>
<g filter="url(#filter0_b)">
<rect x="15.373" y="15.374" width="61.496" height="61.496" rx="15" fill="url(#paint1_radial)"/>
<rect x="15.873" y="15.874" width="60.496" height="60.496" rx="14.5" stroke="url(#paint2_radial)"/>
</g>
<path d="M55.2 48.6L56.3 41.7H49.6V37.2C49.6 35.3 50.5 33.4 53.5 33.4H56.5V27.5C56.5 27.5 53.8 27 51.1 27C45.7 27 42.1 30.3 42.1 36.3V41.6H36V48.5H42.1V65.3C43.3 65.5 44.6 65.6 45.9 65.6C47.2 65.6 48.4 65.5 49.7 65.3V48.6H55.2Z" fill="url(#paint3_radial)"/>
<defs>
<filter id="filter0_b" x="0.373047" y="0.373962" width="91.496" height="91.496" filterUnits="userSpaceOnUse" color-interpolation-filters="sRGB">
<feFlood flood-opacity="0" result="BackgroundImageFix"/>
<feGaussianBlur in="BackgroundImage" stdDeviation="7.5"/>
<feComposite in2="SourceAlpha" operator="in" result="effect1_backgroundBlur"/>
<feBlend mode="normal" in="SourceGraphic" in2="effect1_backgroundBlur" result="shape"/>
</filter>
<radialGradient id="paint0_radial" cx="0" cy="0" r="1" gradientUnits="userSpaceOnUse" gradientTransform="translate(21.4411 20.8603) rotate(59.2776) scale(77.9426)">
<stop stop-color="#4C99F3"/>
<stop offset="1" stop-color="#1077EF"/>
</radialGradient>
<radialGradient id="paint1_radial" cx="0" cy="0" r="1" gradientUnits="userSpaceOnUse" gradientTransform="translate(45.954 28.2843) rotate(55.9422) scale(76.3611 112.317)">
<stop stop-color="white" stop-opacity="0.7"/>
<stop offset="1" stop-color="white" stop-opacity="0"/>
</radialGradient>
<radialGradient id="paint2_radial" cx="0" cy="0" r="1" gradientUnits="userSpaceOnUse" gradientTransform="translate(52.1293 21.2158) rotate(96.1616) scale(55.9775)">
<stop stop-color="#F5C6D6"/>
<stop offset="1" stop-color="#FEF8FA" stop-opacity="0.33"/>
</radialGradient>
<radialGradient id="paint3_radial" cx="0" cy="0" r="1" gradientUnits="userSpaceOnUse" gradientTransform="translate(46.2619 34.1133) rotate(75.1988) scale(26.57 21.374)">
<stop stop-color="white"/>
<stop offset="1" stop-color="white" stop-opacity="0.5"/>
</radialGradient>
</defs>
</svg>
