<svg width="80" height="80" viewBox="0 0 80 80" fill="none" xmlns="http://www.w3.org/2000/svg">
<rect y="15.1172" width="66.6207" height="66.6207" rx="18" transform="rotate(-13.1154 0 15.1172)" fill="url(#paint0_radial)"/>
<g filter="url(#filter0_b)">
<rect x="15.374" y="14.3491" width="61.496" height="61.496" rx="15" fill="url(#paint1_radial)"/>
<rect x="15.7248" y="14.6999" width="60.7944" height="60.7944" rx="14.6492" stroke="url(#paint2_radial)" stroke-width="0.701602"/>
</g>
<g clip-path="url(#clip0)">
<path d="M60.917 39.2381C60.8321 39.2005 58.7616 38.2873 46.5031 32.8788C46.2593 32.7712 45.983 32.7712 45.7392 32.8788L31.3253 39.2381C30.5519 39.5786 30.5593 40.6963 31.3253 41.0333C34.1255 42.2685 38.7031 44.2884 45.7392 47.3926C45.9816 47.4996 46.2579 47.5009 46.5031 47.3926C47.1713 47.0978 56.2752 43.0812 56.6914 42.8977V53.3159C56.6914 53.8429 57.0893 54.2961 57.6063 54.3206C58.1581 54.3468 58.6132 53.8994 58.6132 53.3434V42.5428C58.6132 42.3891 58.5014 42.2593 58.3516 42.2397C56.548 42.003 48.0421 40.8853 45.9981 40.6169C45.4068 40.5417 45.0385 39.9322 45.1939 39.3897C45.3158 38.9315 45.7431 38.6397 46.1758 38.67C46.2189 38.6726 59.9129 40.4718 59.9031 40.4705C60.1589 40.504 60.3692 40.6708 60.4703 40.897C60.5409 41.0551 60.7207 41.1275 60.8752 41.0538C61.1337 40.9304 61.358 40.768 61.4599 40.4005C61.5912 39.9242 61.354 39.4304 60.917 39.2381Z" fill="url(#paint3_radial)"/>
<path d="M45.4726 49.5259L37.3227 46.1466C37.1218 46.0633 36.8975 46.2043 36.8975 46.4138V49.7565C36.8975 52.8911 41.1744 55.3467 46.6343 55.3467C52.0943 55.3467 56.3712 52.8911 56.3712 49.7565V46.4138C56.3712 46.2043 56.1469 46.0634 55.9459 46.1466L47.7954 49.5259C47.0554 49.8337 46.2133 49.8335 45.4726 49.5259Z" fill="url(#paint4_radial)"/>
</g>
<defs>
<filter id="filter0_b" x="4.85" y="3.8251" width="82.544" height="82.544" filterUnits="userSpaceOnUse" color-interpolation-filters="sRGB">
<feFlood flood-opacity="0" result="BackgroundImageFix"/>
<feGaussianBlur in="BackgroundImage" stdDeviation="5.26201"/>
<feComposite in2="SourceAlpha" operator="in" result="effect1_backgroundBlur"/>
<feBlend mode="normal" in="SourceGraphic" in2="effect1_backgroundBlur" result="shape"/>
</filter>
<radialGradient id="paint0_radial" cx="0" cy="0" r="1" gradientUnits="userSpaceOnUse" gradientTransform="translate(21.4411 20.8603) rotate(59.2776) scale(77.9426)">
<stop stop-color="#84DF8D"/>
<stop offset="1" stop-color="#35B32A"/>
</radialGradient>
<radialGradient id="paint1_radial" cx="0" cy="0" r="1" gradientUnits="userSpaceOnUse" gradientTransform="translate(45.955 27.2595) rotate(55.9422) scale(76.3611 112.317)">
<stop stop-color="white" stop-opacity="0.7"/>
<stop offset="1" stop-color="white" stop-opacity="0"/>
</radialGradient>
<radialGradient id="paint2_radial" cx="0" cy="0" r="1" gradientUnits="userSpaceOnUse" gradientTransform="translate(58.6783 14.5362) rotate(111.915) scale(66.2858)">
<stop stop-color="#F7D3DF"/>
<stop offset="1" stop-color="#FFF4F8"/>
</radialGradient>
<radialGradient id="paint3_radial" cx="0" cy="0" r="1" gradientUnits="userSpaceOnUse" gradientTransform="translate(46.1399 36.7645) rotate(54.5962) scale(17.5735 27.0278)">
<stop stop-color="white"/>
<stop offset="1" stop-color="white" stop-opacity="0.5"/>
</radialGradient>
<radialGradient id="paint4_radial" cx="0" cy="0" r="1" gradientUnits="userSpaceOnUse" gradientTransform="translate(46.6456 47.8222) rotate(43.5933) scale(8.90288 14.4808)">
<stop stop-color="white"/>
<stop offset="1" stop-color="white" stop-opacity="0.5"/>
</radialGradient>
<clipPath id="clip0">
<rect width="30.748" height="30.748" fill="white" transform="translate(30.748 28.6982)"/>
</clipPath>
</defs>
</svg>
