<svg width="57" height="16" viewBox="0 0 57 16" fill="none" xmlns="http://www.w3.org/2000/svg">
<path d="M1 7C0.447715 7 4.82823e-08 7.44772 0 8C-4.82823e-08 8.55228 0.447715 9 1 9L1 7ZM56.7071 8.70711C57.0976 8.31659 57.0976 7.68342 56.7071 7.2929L50.3431 0.928937C49.9526 0.538412 49.3195 0.538412 48.9289 0.928936C48.5384 1.31946 48.5384 1.95263 48.9289 2.34315L54.5858 8L48.9289 13.6569C48.5384 14.0474 48.5384 14.6805 48.9289 15.0711C49.3195 15.4616 49.9526 15.4616 50.3431 15.0711L56.7071 8.70711ZM6.09259 9C6.64488 9 7.09259 8.55229 7.09259 8C7.09259 7.44772 6.64488 7 6.09259 7L6.09259 9ZM14.2407 7C13.6885 7 13.2407 7.44772 13.2407 8C13.2407 8.55229 13.6885 9 14.2407 9L14.2407 7ZM24.4259 9C24.9782 9 25.4259 8.55229 25.4259 8C25.4259 7.44772 24.9782 7 24.4259 7L24.4259 9ZM32.5741 7C32.0218 7 31.5741 7.44772 31.5741 8C31.5741 8.55229 32.0218 9 32.5741 9L32.5741 7ZM42.7593 9C43.3115 9 43.7593 8.55229 43.7593 8C43.7593 7.44772 43.3115 7 42.7593 7L42.7593 9ZM50.9074 7C50.3551 7 49.9074 7.44772 49.9074 8C49.9074 8.55229 50.3551 9 50.9074 9L50.9074 7ZM1 9L6.09259 9L6.09259 7L1 7L1 9ZM14.2407 9L24.4259 9L24.4259 7L14.2407 7L14.2407 9ZM32.5741 9L42.7593 9L42.7593 7L32.5741 7L32.5741 9ZM50.9074 9L56 9L56 7L50.9074 7L50.9074 9Z" fill="#20883E"/>
</svg>
