<svg width="20" height="20" viewBox="0 0 20 20" fill="none" xmlns="http://www.w3.org/2000/svg">
<circle cx="10" cy="10" r="10" fill="#BBBBBD"/>
<path fill-rule="evenodd" clip-rule="evenodd" d="M8.75008 6.14279L8.75015 5.84712C8.85441 5.78613 9.00405 5.72326 9.18742 5.66683C9.56196 5.55159 9.95377 5.5 10.1335 5.5C10.3032 5.5 10.6165 5.54798 10.9104 5.65484C11.0533 5.70683 11.1673 5.76412 11.2467 5.81854L11.25 5.82082V8H8.75024L8.75024 7.20612L8.75024 7.20544C8.7499 6.83449 8.74999 6.48499 8.75008 6.14311V6.14279ZM7.25024 8V7.20648C7.2499 6.83495 7.24999 6.48366 7.25008 6.14109V6.14087L7.25015 5.55014C7.25013 5.43363 7.27726 5.31872 7.32938 5.21451C7.49043 4.8925 7.76797 4.68396 7.99214 4.55274C8.22955 4.41377 8.49648 4.31003 8.74628 4.23317C9.23838 4.08175 9.77984 4 10.1335 4C10.497 4 10.9836 4.08536 11.423 4.24517C11.8216 4.39011 12.4005 4.6739 12.6708 5.21462C12.7229 5.31875 12.75 5.43358 12.75 5.55001V8H13C14.1046 8 15 8.89543 15 10V13C15 14.1046 14.1046 15 13 15H7C5.89543 15 5 14.1046 5 13V10C5 8.89543 5.89543 8 7 8H7.25024ZM12 9.5H8.00024H7C6.72386 9.5 6.5 9.72386 6.5 10V13C6.5 13.2761 6.72386 13.5 7 13.5H13C13.2761 13.5 13.5 13.2761 13.5 13V10C13.5 9.72386 13.2761 9.5 13 9.5H12Z" fill="white"/>
</svg>
