<svg width="30" height="30" viewBox="0 0 30 30" fill="none" xmlns="http://www.w3.org/2000/svg">
<g clip-path="url(#clip0)">
<path d="M18.9616 6.99945C18.8517 6.99943 18.7444 6.96678 18.6534 6.9057C18.5624 6.84463 18.4919 6.75793 18.4511 6.65677C18.2372 6.15195 17.9426 5.68467 17.5786 5.27296C17.4947 5.19218 17.3853 5.14262 17.2688 5.13268C17.1523 5.12273 17.0359 5.15301 16.9393 5.21839C15.8985 5.89829 13.8587 6.96453 11.897 6.48216C11.283 6.31192 10.7129 6.01334 10.2249 5.60648C9.73692 5.19961 9.34235 4.69387 9.06771 4.12323C9.01476 4.0274 8.99203 3.91801 9.00248 3.80922C9.01292 3.70044 9.05606 3.59727 9.1263 3.51308C9.19653 3.42889 9.29064 3.36755 9.39642 3.33702C9.5022 3.30649 9.61479 3.30816 9.7196 3.34183C10.1228 3.42043 10.54 3.38725 10.9254 3.24593C11.3108 3.10461 11.6494 2.86062 11.9041 2.54079C11.9976 2.45021 13.697 0.840482 15.5723 1.01291C15.9906 1.05462 16.3958 1.1808 16.7631 1.38369C17.1304 1.58658 17.4519 1.86188 17.7079 2.19265C18.054 2.17963 18.3989 2.24218 18.718 2.37588C19.0371 2.50959 19.3227 2.71118 19.5546 2.96641C20.1751 3.74454 20.1471 4.98539 19.4715 6.65732C19.4307 6.75839 19.3603 6.84503 19.2695 6.90609C19.1786 6.96716 19.0714 6.99987 18.9616 7V6.99945ZM10.6163 4.44354C11.0159 4.92203 11.5568 5.26421 12.1627 5.42192C13.7773 5.82081 15.6169 4.77476 16.3337 4.30603C16.6449 4.0986 17.0197 4.00627 17.3925 4.04517C17.7654 4.08407 18.1126 4.25173 18.3735 4.51884C18.5379 4.69169 18.6883 4.87706 18.8235 5.07324C18.9034 4.83885 18.933 4.59048 18.9103 4.34407C18.8877 4.09767 18.8133 3.8587 18.692 3.6425C18.5359 3.50386 18.3511 3.4008 18.1506 3.34057C17.9501 3.28033 17.7387 3.26437 17.5313 3.29381C17.4314 3.30857 17.3293 3.29576 17.2362 3.25678C17.1432 3.21779 17.0627 3.15415 17.0037 3.07282C16.8386 2.80782 16.6157 2.58292 16.3515 2.41464C16.0872 2.24636 15.7882 2.13899 15.4766 2.10043C14.1013 1.97929 12.7023 3.29163 12.6886 3.30473C12.1522 3.91163 11.4195 4.3143 10.6163 4.44354Z" fill="#0A467E"/>
<rect x="0.75" y="23.75" width="28.5" height="3.5" rx="1.75" stroke="#0A467E" stroke-width="1.5"/>
<path d="M7 15C6 15.2449 4 16.9877 4 22" stroke="#0A467E" stroke-width="1.5"/>
<path d="M23 15C24 15.2449 26 16.9877 26 22" stroke="#0A467E" stroke-width="1.5"/>
<mask id="path-5-inside-1" fill="white">
<rect x="7" y="12" width="16" height="11" rx="1"/>
</mask>
<rect x="7" y="12" width="16" height="11" rx="1" stroke="#EB174B" stroke-width="3" mask="url(#path-5-inside-1)"/>
<circle cx="14.5" cy="17.5" r="1.5" stroke="#EB174B" stroke-width="1.5"/>
<path d="M11.3586 5.76317C11.129 6.24686 11 6.79126 11 7.36694C11 9.37342 12.567 11 14.5 11C16.433 11 18 9.37342 18 7.36694C18 6.4628 17.6818 5.6358 17.1554 5" stroke="#0A467E" stroke-width="1.5"/>
<path d="M16.6233 5.17676C11.8999 7.73748 9.57302 5.6978 9 4.35788C10.9135 5.22144 12.6246 1.52906 14.9415 2.05069C15.3028 2.0755 16.2271 2.35578 17.0343 3.27842C19.695 3.5166 19.0896 5.85872 18.4543 7C18.255 6.24328 17.6098 4.81922 16.6233 5.17676Z" stroke="#0A467E" stroke-width="1.5" stroke-linecap="round" stroke-linejoin="round"/>
</g>
<defs>
<clipPath id="clip0">
<rect width="30" height="30" fill="white"/>
</clipPath>
</defs>
</svg>
