<svg width="30" height="31" viewBox="0 0 30 31" fill="none" xmlns="http://www.w3.org/2000/svg">
<path d="M21.25 26.75V24.25C21.25 22.9239 20.7232 21.6521 19.7855 20.7145C18.8479 19.7768 17.5761 19.25 16.25 19.25H6.25C4.92392 19.25 3.65215 19.7768 2.71447 20.7145C1.77678 21.6521 1.25 22.9239 1.25 24.25V26.75" stroke="#0A467E" stroke-width="1.5" stroke-linecap="round" stroke-linejoin="round"/>
<path d="M11.25 14.25C14.0114 14.25 16.25 12.0114 16.25 9.25C16.25 6.48858 14.0114 4.25 11.25 4.25C8.48858 4.25 6.25 6.48858 6.25 9.25C6.25 12.0114 8.48858 14.25 11.25 14.25Z" stroke="#0A467E" stroke-width="1.5" stroke-linecap="round" stroke-linejoin="round"/>
<path d="M28.75 26.75V24.25C28.7492 23.1421 28.3804 22.0659 27.7017 21.1904C27.023 20.3148 26.0727 19.6894 25 19.4125" stroke="#EB174B" stroke-width="1.5" stroke-linecap="round" stroke-linejoin="round"/>
<path d="M20 4.41248C21.0755 4.68785 22.0288 5.31335 22.7095 6.19036C23.3903 7.06738 23.7598 8.14601 23.7598 9.25623C23.7598 10.3664 23.3903 11.4451 22.7095 12.3221C22.0288 13.1991 21.0755 13.8246 20 14.1" stroke="#EB174B" stroke-width="1.5" stroke-linecap="round" stroke-linejoin="round"/>
</svg>
