<svg width="48" height="49" viewBox="0 0 48 49" fill="none" xmlns="http://www.w3.org/2000/svg">
<g clip-path="url(#clip0)">
<circle cx="24" cy="24.5" r="24" fill="#FF0000"/>
<path fill-rule="evenodd" clip-rule="evenodd" d="M36.0588 16.2332C36.4796 16.6656 36.7828 17.2048 36.9379 17.7966C37.4889 19.9691 37.5 24.5046 37.5 24.5046C37.5 24.5046 37.5 29.0401 36.9379 31.2126C36.7814 31.8027 36.4777 32.3399 36.057 32.7707C35.6363 33.2015 35.1134 33.5107 34.5407 33.6673C32.4368 34.25 23.9944 34.25 23.9944 34.25C23.9944 34.25 15.5543 34.25 13.4504 33.6765C12.8785 33.5177 12.357 33.2065 11.9382 32.7741C11.5194 32.3417 11.2181 31.8032 11.0643 31.2126C10.5 29.0401 10.5 24.5046 10.5 24.5046C10.5 24.5046 10.5 19.9691 11.0643 17.7966C11.2181 17.206 11.5194 16.6675 11.9382 16.2351C12.357 15.8026 12.8785 15.4915 13.4504 15.3327C15.5521 14.75 23.9944 14.75 23.9944 14.75C23.9944 14.75 32.4346 14.75 34.5407 15.3327C35.1145 15.4901 35.6381 15.8007 36.0588 16.2332ZM28.3089 24.5046L21.2951 28.6845V20.3247L28.3089 24.5046Z" fill="white"/>
</g>
<defs>
<clipPath id="clip0">
<rect width="48" height="48" fill="white" transform="translate(0 0.5)"/>
</clipPath>
</defs>
</svg>
