<svg width="30" height="31" viewBox="0 0 30 31" fill="none" xmlns="http://www.w3.org/2000/svg">
<g clip-path="url(#clip0)">
<path d="M2 11.5L7.89499 14.0167C10.9047 15.3016 14.3085 15.3016 17.3182 14.0167L23.2132 11.5" stroke="#0A467E" stroke-width="1.5"/>
<path d="M17 6.5V4.5C17 3.39543 16.1046 2.5 15 2.5H11C9.89543 2.5 9 3.39543 9 4.5V6.5" stroke="#0A467E" stroke-width="1.5"/>
<path d="M23 18V9.5C23 7.84315 21.6569 6.5 20 6.5H5C3.34315 6.5 2 7.84315 2 9.5V22.5C2 24.1569 3.34315 25.5 5 25.5H17.5" stroke="#0A467E" stroke-width="1.5"/>
<path d="M23 20.5V23.5L25 25.5" stroke="#EB174B" stroke-width="1.5" stroke-linecap="round" stroke-linejoin="round"/>
<circle cx="23" cy="23.5" r="6" stroke="#EB174B" stroke-width="1.5"/>
</g>
<defs>
<clipPath id="clip0">
<rect width="30" height="30" fill="white" transform="translate(0 0.5)"/>
</clipPath>
</defs>
</svg>
