<svg width="48" height="49" viewBox="0 0 48 49" fill="none" xmlns="http://www.w3.org/2000/svg">
<path d="M48 24.5C48 11.2438 37.2562 0.5 24 0.5C10.7438 0.5 0 11.2438 0 24.5C0 36.4813 8.775 46.4094 20.25 48.2094V31.4375H14.1562V24.5H20.25V19.2125C20.25 13.1984 23.8313 9.875 29.3156 9.875C31.9406 9.875 34.6875 10.3438 34.6875 10.3438V16.25H31.6594C28.6781 16.25 27.75 18.1016 27.75 20V24.5H34.4062L33.3422 31.4375H27.75V48.2094C39.225 46.4094 48 36.4813 48 24.5Z" fill="#1877F2"/>
<path d="M33.3423 31.4375L34.4062 24.5H27.75V20C27.75 18.1016 28.6782 16.25 31.6595 16.25H34.6875V10.3438C34.6875 10.3438 31.9407 9.875 29.3156 9.875C23.8314 9.875 20.2501 13.1984 20.2501 19.2125V24.5H14.1562V31.4375H20.2501V48.2094C21.4735 48.4016 22.725 48.5 24 48.5C25.275 48.5 26.5266 48.4016 27.75 48.2094V31.4375H33.3423Z" fill="white"/>
</svg>
