<svg width="44" height="44" viewBox="0 0 44 44" fill="none" xmlns="http://www.w3.org/2000/svg">
<circle cx="22" cy="22" r="22" fill="#27A248"/>
<path fill-rule="evenodd" clip-rule="evenodd" d="M17.9317 29.2254C18.7208 29.9709 19.9843 29.9709 20.7734 29.2254L32.7835 17.6578C33.5366 16.8965 33.5212 15.6936 32.7487 14.9506C31.9762 14.2076 30.7292 14.1943 29.9399 14.9208L19.3535 25.1373L14.7702 20.7046C13.9855 19.9483 12.7128 19.9478 11.9276 20.7036C11.1423 21.4594 11.1419 22.6852 11.9266 23.4416L17.9317 29.2254Z" fill="white"/>
<path fill-rule="evenodd" clip-rule="evenodd" d="M17.9317 29.2254C18.7208 29.9709 19.9843 29.9709 20.7734 29.2254L32.7835 17.6578C33.5366 16.8965 33.5212 15.6936 32.7487 14.9506C31.9762 14.2076 30.7292 14.1943 29.9399 14.9208L19.3535 25.1373L14.7702 20.7046C13.9855 19.9483 12.7128 19.9478 11.9276 20.7036C11.1423 21.4594 11.1419 22.6852 11.9266 23.4416L17.9317 29.2254Z" fill="white"/>
</svg>
