<svg width="30" height="31" viewBox="0 0 30 31" fill="none" xmlns="http://www.w3.org/2000/svg">
<g clip-path="url(#clip0)">
<path d="M6 11.5V10.5C6 9.39543 6.89543 8.5 8 8.5H11C12.1046 8.5 13 9.39543 13 10.5V11.5" stroke="#0A467E" stroke-width="1.5" stroke-miterlimit="10" stroke-linecap="round" stroke-linejoin="round"/>
<path d="M18 29.5L29 29.5" stroke="#0A467E" stroke-width="1.5" stroke-miterlimit="10" stroke-linecap="round" stroke-linejoin="round"/>
<path d="M27 29.5V3.5C27 2.39543 26.1046 1.5 25 1.5H22C20.8954 1.5 20 2.39543 20 3.5V10.863" stroke="#0A467E" stroke-width="1.5" stroke-miterlimit="10" stroke-linecap="round" stroke-linejoin="round"/>
<path d="M20 29.5V6.5C20 5.39543 19.1046 4.5 18 4.5H15C13.8954 4.5 13 5.39543 13 6.5V11.5" stroke="#0A467E" stroke-width="1.5" stroke-miterlimit="10" stroke-linecap="round" stroke-linejoin="round"/>
<path d="M1 19.8105L7.64413 22.5336C8.14853 22.7403 8.71545 22.7322 9.21372 22.5111L16 19.5001" stroke="#EB174B" stroke-width="1.5"/>
<path d="M12 17.5V16.5C12 15.3954 11.1046 14.5 10 14.5H8C6.89543 14.5 6 15.3954 6 16.5V17.5" stroke="#EB174B" stroke-width="1.5"/>
<rect x="1" y="17.5" width="15" height="9" rx="2" stroke="#EB174B" stroke-width="1.5"/>
</g>
<defs>
<clipPath id="clip0">
<rect width="30" height="30" fill="white" transform="translate(0 0.5)"/>
</clipPath>
</defs>
</svg>
