<svg width="30" height="30" viewBox="0 0 30 30" fill="none" xmlns="http://www.w3.org/2000/svg">
<g clip-path="url(#clip0)">
<path d="M8.84766 27.9491H21.1527" stroke="#0A467E" stroke-width="1.5" stroke-miterlimit="10" stroke-linecap="round" stroke-linejoin="round"/>
<path d="M27.967 23.8814H2.03479C1.32293 23.8814 0.814453 23.3729 0.814453 22.6611V3.03394C0.814453 2.32207 1.32293 1.8136 2.03479 1.8136H28.0687C28.7806 1.8136 29.289 2.32207 29.289 3.03394V22.6611C29.289 23.3729 28.6789 23.8814 27.967 23.8814Z" stroke="#0A467E" stroke-width="1.5" stroke-miterlimit="10"/>
<path d="M0.814453 19.7119H29.289" stroke="#0A467E" stroke-width="1.5" stroke-miterlimit="10"/>
<path d="M18.0001 23.8813H11.8984V27.8475H18.0001V23.8813Z" stroke="#0A467E" stroke-width="1.5" stroke-miterlimit="10"/>
<path d="M17.9994 9.06787H5.79598C5.3892 9.06787 4.98242 9.47465 4.98242 9.88143V15.0679C4.98242 15.4747 5.3892 15.8814 5.79598 15.8814H6.10107C6.40615 15.8814 6.71124 16.1865 6.71124 16.4916V17.2035C6.71124 17.3052 6.81293 17.3052 6.91463 17.3052L8.13496 16.0848C8.23666 15.9831 8.44005 15.8814 8.54174 15.8814H17.9994C18.4062 15.8814 18.8129 15.4747 18.8129 15.0679V9.88143C18.8129 9.47465 18.5078 9.06787 17.9994 9.06787Z" stroke="#EB174B" stroke-width="1.5" stroke-miterlimit="10" stroke-linecap="round" stroke-linejoin="round"/>
<path d="M10.9824 9.0678V5.81356C10.9824 5.40678 11.3892 5 11.796 5H23.9994C24.4062 5 24.8129 5.40678 24.8129 5.81356V11C24.8129 11.4068 24.4062 11.8136 23.9994 11.8136H23.796C23.4909 11.8136 23.1858 12.1186 23.1858 12.4237V13.1356C23.1858 13.2373 23.0841 13.2373 22.9824 13.2373L21.7621 12.0169C21.6604 11.9153 21.457 11.8136 21.3553 11.8136H18.9146" stroke="#EB174B" stroke-width="1.5" stroke-miterlimit="10" stroke-linecap="round" stroke-linejoin="round"/>
<path d="M9.36398 12.6271C9.36398 12.9126 9.13253 13.144 8.84703 13.144C8.56152 13.144 8.33008 12.9126 8.33008 12.6271C8.33008 12.3416 8.56152 12.1101 8.84703 12.1101C9.13253 12.1101 9.36398 12.3416 9.36398 12.6271Z" fill="#0A467E" stroke="#EB174B"/>
<path d="M12.4148 12.6271C12.4148 12.9126 12.1833 13.144 11.8978 13.144C11.6123 13.144 11.3809 12.9126 11.3809 12.6271C11.3809 12.3416 11.6123 12.1101 11.8978 12.1101C12.1833 12.1101 12.4148 12.3416 12.4148 12.6271Z" fill="#0A467E" stroke="#EB174B"/>
<path d="M15.5671 12.6271C15.5671 12.9126 15.3357 13.144 15.0502 13.144C14.7646 13.144 14.5332 12.9126 14.5332 12.6271C14.5332 12.3416 14.7646 12.1101 15.0502 12.1101C15.3357 12.1101 15.5671 12.3416 15.5671 12.6271Z" fill="#0A467E" stroke="#EB174B"/>
</g>
<defs>
<clipPath id="clip0">
<rect width="30" height="30" fill="white"/>
</clipPath>
</defs>
</svg>
