<svg width="79" height="79" viewBox="0 0 79 79" fill="none" xmlns="http://www.w3.org/2000/svg">
<rect y="15" width="65" height="65" rx="18" transform="rotate(-13.1154 0 15)" fill="url(#paint0_radial)"/>
<g filter="url(#filter0_b)">
<rect x="15" y="15" width="60" height="60" rx="15" fill="url(#paint1_radial)"/>
<rect x="15.5" y="15.5" width="59" height="59" rx="14.5" stroke="url(#paint2_radial)"/>
</g>
<path fill-rule="evenodd" clip-rule="evenodd" d="M54.8157 33.866C49.8225 36.7064 39.9183 39.1644 34.1727 38.9914C30.963 38.9335 30.0662 38.2216 30.0051 37.9767C29.944 37.7319 30.4015 36.6838 33.2093 35.1319C38.2868 32.2747 47.9459 29.8579 53.8523 30.0065C56.4299 30.053 57.5153 30.5211 57.8746 30.8305C58.039 31.0152 58.0027 31.1654 57.9799 31.2598L57.9791 31.2629C57.8031 31.7064 57.0611 32.625 54.8157 33.866ZM45.4882 39.8054C41.4337 40.798 37.7571 41.3093 34.5078 41.2659C33.0885 41.2403 31.9185 41.0935 31 40.8276L31.2909 41.9903C31.3513 42.2319 32.2382 42.9342 35.4124 42.9915C41.0939 43.1626 50.8887 40.7367 55.8263 37.9341C58.603 36.4029 59.0554 35.3686 58.995 35.127L58.713 34C55.381 36.867 50.616 38.4473 45.4882 39.8054ZM46.4478 43.6321C44.5807 44.1269 42.7407 44.5105 41 44.7732C45.536 45.2917 51.6922 44.9009 55.4003 43.8086C58.1201 43.032 59 42.1298 59 41.8145C59 41.6322 58.4764 40.8142 55.9873 40C53.4147 41.3962 50.0678 42.6729 46.4478 43.6321ZM30.7429 43.651C35.8864 46.3229 49.0987 46.9973 55.8561 44.9358C57.7776 44.4074 59.1614 43.7599 60 43V55.2586C59.5465 61.5755 30.4664 61.5854 30 55.2586V43.2259C30.2148 43.3834 30.462 43.5253 30.7429 43.651Z" fill="url(#paint3_radial)"/>
<defs>
<filter id="filter0_b" x="0" y="0" width="90" height="90" filterUnits="userSpaceOnUse" color-interpolation-filters="sRGB">
<feFlood flood-opacity="0" result="BackgroundImageFix"/>
<feGaussianBlur in="BackgroundImage" stdDeviation="7.5"/>
<feComposite in2="SourceAlpha" operator="in" result="effect1_backgroundBlur"/>
<feBlend mode="normal" in="SourceGraphic" in2="effect1_backgroundBlur" result="shape"/>
</filter>
<radialGradient id="paint0_radial" cx="0" cy="0" r="1" gradientUnits="userSpaceOnUse" gradientTransform="translate(20.9195 20.6034) rotate(59.2776) scale(76.0465)">
<stop stop-color="#EB749E"/>
<stop offset="1" stop-color="#D85381"/>
</radialGradient>
<radialGradient id="paint1_radial" cx="0" cy="0" r="1" gradientUnits="userSpaceOnUse" gradientTransform="translate(44.837 27.5963) rotate(55.9422) scale(74.5035 109.585)">
<stop stop-color="white" stop-opacity="0.7"/>
<stop offset="1" stop-color="white" stop-opacity="0"/>
</radialGradient>
<radialGradient id="paint2_radial" cx="0" cy="0" r="1" gradientUnits="userSpaceOnUse" gradientTransform="translate(50.8621 20.6998) rotate(96.1616) scale(54.6157)">
<stop stop-color="#F5C6D6"/>
<stop offset="1" stop-color="#FEF8FA" stop-opacity="0.33"/>
</radialGradient>
<radialGradient id="paint3_radial" cx="0" cy="0" r="1" gradientUnits="userSpaceOnUse" gradientTransform="translate(45.0174 35.5285) rotate(63.5481) scale(22.2996 28.9656)">
<stop stop-color="white"/>
<stop offset="1" stop-color="white" stop-opacity="0.5"/>
</radialGradient>
</defs>
</svg>
