<svg width="30" height="30" viewBox="0 0 30 30" fill="none" xmlns="http://www.w3.org/2000/svg">
<path d="M10.2408 24.9155C9.99048 24.9155 9.86531 24.8028 9.86531 24.5775C9.86531 24.5099 9.88707 24.4479 9.93061 24.3916L17.9959 13.4056C18.0721 13.3042 18.1483 13.2254 18.2245 13.169C18.3007 13.1127 18.415 13.0845 18.5673 13.0845H19.7265C19.9769 13.0845 20.102 13.1972 20.102 13.4225C20.102 13.4901 20.0803 13.5521 20.0367 13.6085L11.9714 24.5944C11.8952 24.6958 11.819 24.7746 11.7429 24.831C11.6667 24.8873 11.5524 24.9155 11.4 24.9155H10.2408ZM18.4531 25C17.7129 25 17.1197 24.7972 16.6735 24.3916C16.2381 23.9859 15.9932 23.4451 15.9388 22.769C15.9279 22.4761 15.9224 22.2169 15.9224 21.9915C15.9224 21.7662 15.9279 21.4958 15.9388 21.1803C15.9823 20.493 16.2163 19.9465 16.6408 19.5408C17.0762 19.1239 17.6803 18.9155 18.4531 18.9155C19.2367 18.9155 19.8408 19.1239 20.2653 19.5408C20.6898 19.9465 20.9238 20.493 20.9673 21.1803C20.9891 21.4958 21 21.7662 21 21.9915C21 22.2169 20.9891 22.4761 20.9673 22.769C20.9238 23.4451 20.6789 23.9859 20.2327 24.3916C19.7864 24.7972 19.1932 25 18.4531 25ZM18.4531 23.5127C18.6381 23.5127 18.7796 23.4732 18.8776 23.3944C18.9864 23.3042 19.068 23.1972 19.1224 23.0732C19.1769 22.938 19.2095 22.8028 19.2204 22.6676C19.2422 22.4085 19.2531 22.1718 19.2531 21.9577C19.2531 21.7437 19.2422 21.5127 19.2204 21.2648C19.2095 21.0507 19.1442 20.8592 19.0245 20.6901C18.9156 20.5099 18.7252 20.4197 18.4531 20.4197C18.1918 20.4197 18.0014 20.5099 17.8816 20.6901C17.7728 20.8592 17.7129 21.0507 17.702 21.2648C17.6912 21.5127 17.6857 21.7437 17.6857 21.9577C17.6857 22.1718 17.6912 22.4085 17.702 22.6676C17.7129 22.8028 17.7401 22.938 17.7837 23.0732C17.8381 23.1972 17.9197 23.3042 18.0286 23.3944C18.1374 23.4732 18.2789 23.5127 18.4531 23.5127ZM11.5469 19.0507C10.7959 19.0507 10.1973 18.8535 9.75102 18.4592C9.31565 18.0535 9.07619 17.5127 9.03265 16.8366C9.01088 16.5437 9 16.2845 9 16.0592C9.01088 15.8338 9.02177 15.5634 9.03265 15.2479C9.06531 14.5718 9.29388 14.031 9.71837 13.6254C10.1537 13.2085 10.7633 13 11.5469 13C12.3306 13 12.9347 13.2085 13.3592 13.6254C13.7837 14.031 14.0122 14.5718 14.0449 15.2479C14.0667 15.5634 14.0776 15.8338 14.0776 16.0592C14.0776 16.2845 14.0667 16.5437 14.0449 16.8366C14.0122 17.5127 13.7728 18.0535 13.3265 18.4592C12.8803 18.8535 12.2871 19.0507 11.5469 19.0507ZM11.5469 17.5803C11.7211 17.5803 11.8626 17.5408 11.9714 17.462C12.0803 17.3831 12.1619 17.2817 12.2163 17.1577C12.2707 17.0225 12.298 16.8873 12.298 16.7521C12.3197 16.493 12.3306 16.2563 12.3306 16.0423C12.3306 15.8282 12.3197 15.5972 12.298 15.3493C12.2871 15.1352 12.2218 14.9437 12.102 14.7746C11.9932 14.5944 11.8082 14.5042 11.5469 14.5042C11.2748 14.5042 11.0844 14.5944 10.9755 14.7746C10.8667 14.9437 10.8014 15.1352 10.7796 15.3493C10.7687 15.5972 10.7633 15.8282 10.7633 16.0423C10.7633 16.2563 10.7687 16.493 10.7796 16.7521C10.8014 16.8873 10.834 17.0225 10.8776 17.1577C10.9211 17.2817 10.9973 17.3831 11.1061 17.462C11.215 17.5408 11.3619 17.5803 11.5469 17.5803Z" fill="#EB174B"/>
<path d="M1 9H29V26C29 27.6569 27.6569 29 26 29H4C2.34315 29 1 27.6569 1 26V9Z" stroke="#0A467E" stroke-width="1.5"/>
<path d="M1 6C1 4.34315 2.34315 3 4 3H26C27.6569 3 29 4.34315 29 6V9H1V6Z" stroke="#0A467E" stroke-width="1.5"/>
<line x1="7.75" y1="0.75" x2="7.75" y2="5.25" stroke="#0A467E" stroke-width="1.5" stroke-linecap="round" stroke-linejoin="round"/>
<line x1="23.75" y1="0.75" x2="23.75" y2="5.25" stroke="#0A467E" stroke-width="1.5" stroke-linecap="round" stroke-linejoin="round"/>
</svg>
