<svg width="30" height="30" viewBox="0 0 30 30" fill="none" xmlns="http://www.w3.org/2000/svg">
<path d="M13.8536 19.8538C14.0488 19.6582 14.0488 19.3418 13.8536 19.1462C13.6583 18.9513 13.3418 18.9513 13.1462 19.1462C12.9513 19.3418 12.9513 19.6582 13.1462 19.8538C13.3418 20.0487 13.6583 20.0487 13.8536 19.8538Z" fill="#0A467E"/>
<path d="M11 6.49988C11 10.0839 13.9159 13 17.5 13C21.0841 13 24 10.0839 24 6.49988C24 2.91585 21.0841 0 17.5 0C13.9159 0 11 2.91585 11 6.49988ZM22.8183 6.49988C22.8183 9.43236 20.4325 11.8181 17.5 11.8181C14.5675 11.8181 12.1817 9.43236 12.1817 6.49988C12.1817 3.56764 14.5675 1.1819 17.5 1.1819C20.4325 1.1819 22.8183 3.56764 22.8183 6.49988Z" fill="#EB174B"/>
<path d="M6.74926 29.8224C6.97638 30.0571 7.34614 30.0596 7.57624 29.8274L10.4171 26.9593C10.8997 26.4647 11.0465 25.7324 10.8342 25.0959L11.4453 24.492C11.7743 24.1663 12.2075 23.9868 12.6654 23.9868H20.4551C21.837 23.9868 23.1432 23.443 24.1335 22.4554C24.1742 22.4148 23.8241 22.8374 29.4477 15.9497C30.2818 14.9385 30.157 13.42 29.1693 12.5643C28.1878 11.7166 26.7174 11.8384 25.8811 12.8323L22.4234 16.4741C21.9868 15.9235 21.321 15.5802 20.6016 15.5802H14.0675C13.1377 15.1816 12.1512 14.9798 11.1333 14.9798C8.31163 14.9798 5.84787 16.3153 4.52566 18.8192C3.96862 18.7111 3.38113 18.8837 2.95848 19.3169L0.170971 22.1819C-0.0566083 22.4158 -0.0570662 22.7942 0.170055 23.0289L6.74926 29.8224ZM11.133 16.1806C12.0305 16.1806 12.8983 16.3657 13.7126 16.7308C13.7868 16.7641 13.8667 16.7813 13.9475 16.7813H20.6016C21.237 16.7813 21.7736 17.3122 21.7736 17.9821C21.7736 18.6444 21.248 19.1831 20.6016 19.1831H15.8208C15.4973 19.1831 15.235 19.452 15.235 19.7835C15.235 20.1153 15.4973 20.3839 15.8208 20.3839H20.6016C21.8941 20.3839 22.9454 19.3065 22.9454 17.9821C22.9454 17.8765 22.9381 17.7718 22.9248 17.6681C26.2696 14.1448 26.7412 13.6497 26.7614 13.6251C27.179 13.1199 27.9203 13.0559 28.4135 13.482C28.9071 13.9097 28.9696 14.6689 28.5509 15.1769L23.2953 21.6155C22.5278 22.3705 21.5202 22.786 20.4551 22.786H12.6654C11.9021 22.786 11.1795 23.0852 10.6314 23.6279L10.1334 24.1203L5.5429 19.4163C6.61578 17.3537 8.62896 16.1806 11.133 16.1806ZM3.78775 20.1655C3.98098 19.9675 4.27771 19.9318 4.5133 20.081C4.61473 20.1444 4.3235 19.8727 9.58851 25.2606C9.82273 25.5006 9.81013 25.8831 9.59171 26.1069L7.16984 28.5519L1.41236 22.6068L3.78775 20.1655Z" fill="#0A467E"/>
<path d="M17.3615 2.57159V3.24119C16.5937 3.47697 16.0422 4.1122 16.0422 4.85727C16.0422 5.8024 16.9298 6.57159 18.0211 6.57159C18.3848 6.57159 18.6806 6.82791 18.6806 7.14295C18.6806 7.458 18.3848 7.71432 18.0211 7.71432C17.7394 7.71432 17.435 7.56093 17.1646 7.28205C16.9301 7.04047 16.5141 7.00943 16.2352 7.21239C15.9563 7.41557 15.9203 7.77594 16.1548 8.01753C16.5074 8.3808 16.9221 8.63399 17.3615 8.76171V9.42864C17.3615 9.74435 17.6569 10 18.0211 10C18.3853 10 18.6806 9.74435 18.6806 9.42864V8.75903C19.4484 8.52303 20 7.8878 20 7.14295C20 6.1976 19.1123 5.42864 18.0211 5.42864C17.6574 5.42864 17.3615 5.17231 17.3615 4.85727C17.3615 4.54223 17.6574 4.28568 18.0211 4.28568C18.2549 4.28568 18.5015 4.38906 18.7345 4.58443C18.9964 4.80391 19.4139 4.79788 19.6673 4.57125C19.9206 4.3444 19.9137 3.9827 19.6521 3.76322C19.3173 3.48256 18.9822 3.32381 18.6806 3.23718V2.57159C18.6806 2.25587 18.3853 2 18.0211 2C17.6569 2 17.3615 2.25587 17.3615 2.57159Z" fill="#EB174B"/>
</svg>
